<svg xmlns="http://www.w3.org/2000/svg" xmlns:xlink="http://www.w3.org/1999/xlink" viewBox="0 0 77 77" preserveAspectRatio="xMidYMid" width="77" height="77" style="shape-rendering: auto; background: rgb(238, 238, 238);"><g id="pattern-group" transform="scale(0.30078125)">


<defs><g id="id-0.061250930477238175"><style type="text/css">.st22{fill:#ed1e79}</style><path d="M90,34.613c0-1.501-0.157-2.964-0.451-4.378c-2.021-9.724-10.635-17.032-20.959-17.032 c-4.43,0-8.545,1.346-11.96,3.65c-2.727,1.84-4.993,4.3-6.63,7.166c-1.637-2.866-3.903-5.326-6.63-7.166 c-3.415-2.304-7.53-3.65-11.96-3.65c-10.324,0-18.938,7.308-20.959,17.032C10.157,31.649,10,33.112,10,34.613 c0,0.328,0.022,0.651,0.037,0.975c-0.002,0.159-0.012,0.315-0.012,0.474C10.025,58.179,50,86.797,50,86.797 s39.975-28.618,39.975-50.734c0-0.159-0.01-0.316-0.012-0.474C89.978,35.264,90,34.941,90,34.613z" class="st22" data-fill="c1" style="fill: rgb(237, 30, 121);"></path><metadata xmlns:d="https://loading.io/stock/"></metadata></g></defs>




















<g data-idx="0" data-dup="" dx="-128" dy="-128" style="opacity: 1; transform-origin: -43.7px -33.23px; transform: matrix3d(1, 0, 0, 0, 0, 1, 0, 0, 0, 0, 1, 0, 0, 0, 0, 1); animation: 1s linear 0s infinite normal forwards running animate; transform-box: view-box;"><g transform="translate(-128,-128)"><polygon points="95.261,98.953 73.345,96.2 74.22,90.577 94.461,93.724" fill="#B3B4B4" data-fill="c2" style="fill: rgb(179, 180, 180);"></polygon></g></g><g data-idx="0" data-dup="" dx="128" dy="-128" style="opacity: 1; transform-origin: 212.3px -33.23px; transform: matrix3d(1, 0, 0, 0, 0, 1, 0, 0, 0, 0, 1, 0, 0, 0, 0, 1); animation: 1s linear 0s infinite normal forwards running animate; transform-box: view-box;"><g transform="translate(128,-128)"><polygon points="95.261,98.953 73.345,96.2 74.22,90.577 94.461,93.724" fill="#B3B4B4" data-fill="c2" style="fill: rgb(179, 180, 180);"></polygon></g></g><g data-idx="1" data-dup="" dx="-128" dy="-128" style="opacity: 1; transform-origin: -89.9px 85.47px; transform: matrix3d(1, 0, 0, 0, 0, 1, 0, 0, 0, 0, 1, 0, 0, 0, 0, 1); animation: 1s linear -0.0714286s infinite normal forwards running animate; transform-box: view-box;"><g transform="translate(-128,-128)"><path d="M38.105,224.49c-0.05,0-0.099,0-0.149-0.001c-2.943-0.039-5.694-1.221-7.748-3.33
	c-4.239-4.352-4.147-11.342,0.205-15.581c2.108-2.054,4.884-3.157,7.833-3.124c2.943,0.039,5.694,1.222,7.748,3.33
	c4.239,4.352,4.147,11.342-0.205,15.58C43.716,223.383,40.992,224.49,38.105,224.49z M38.098,207.494
	c-1.567,0-3.044,0.6-4.169,1.695c-2.361,2.3-2.411,6.092-0.111,8.453c1.114,1.144,2.607,1.785,4.204,1.806
	c1.609,0.014,3.106-0.581,4.25-1.695c2.361-2.3,2.411-6.092,0.112-8.453l0,0c-1.114-1.144-2.607-1.785-4.204-1.806
	C38.152,207.494,38.125,207.494,38.098,207.494z" fill="#B3B4B4" data-fill="c2" style="fill: rgb(179, 180, 180);"></path></g></g><g data-idx="1" data-dup="" dx="128" dy="-128" style="opacity: 1; transform-origin: 166.1px 85.47px; transform: matrix3d(1, 0, 0, 0, 0, 1, 0, 0, 0, 0, 1, 0, 0, 0, 0, 1); animation: 1s linear -0.0714286s infinite normal forwards running animate; transform-box: view-box;"><g transform="translate(128,-128)"><path d="M38.105,224.49c-0.05,0-0.099,0-0.149-0.001c-2.943-0.039-5.694-1.221-7.748-3.33
	c-4.239-4.352-4.147-11.342,0.205-15.581c2.108-2.054,4.884-3.157,7.833-3.124c2.943,0.039,5.694,1.222,7.748,3.33
	c4.239,4.352,4.147,11.342-0.205,15.58C43.716,223.383,40.992,224.49,38.105,224.49z M38.098,207.494
	c-1.567,0-3.044,0.6-4.169,1.695c-2.361,2.3-2.411,6.092-0.111,8.453c1.114,1.144,2.607,1.785,4.204,1.806
	c1.609,0.014,3.106-0.581,4.25-1.695c2.361-2.3,2.411-6.092,0.112-8.453l0,0c-1.114-1.144-2.607-1.785-4.204-1.806
	C38.152,207.494,38.125,207.494,38.098,207.494z" fill="#B3B4B4" data-fill="c2" style="fill: rgb(179, 180, 180);"></path></g></g><g data-idx="2" data-dup="" dx="-128" dy="-128" style="opacity: 1; transform-origin: 106.49px -80.5px; transform: matrix3d(1, 0, 0, 0, 0, 1, 0, 0, 0, 0, 1, 0, 0, 0, 0, 1); animation: 1s linear -0.142857s infinite normal forwards running animate; transform-box: view-box;"><g transform="translate(-128,-128)"><ellipse ry="4.4" rx="4.4" cy="47.5" cx="234.5" fill="#B3B4B4" transform="matrix(0.7249 -0.6888 0.6888 0.7249 31.7828 174.5914)" data-fill="c2" style="fill: rgb(179, 180, 180);"></ellipse></g></g><g data-idx="2" data-dup="" dx="128" dy="-128" style="opacity: 1; transform-origin: 362.49px -80.5px; transform: matrix3d(1, 0, 0, 0, 0, 1, 0, 0, 0, 0, 1, 0, 0, 0, 0, 1); animation: 1s linear -0.142857s infinite normal forwards running animate; transform-box: view-box;"><g transform="translate(128,-128)"><ellipse ry="4.4" rx="4.4" cy="47.5" cx="234.5" fill="#B3B4B4" transform="matrix(0.7249 -0.6888 0.6888 0.7249 31.7828 174.5914)" data-fill="c2" style="fill: rgb(179, 180, 180);"></ellipse></g></g><g data-idx="3" data-dup="" dx="-128" dy="-128" style="opacity: 1; transform-origin: 28.53px 18.65px; transform: matrix3d(1, 0, 0, 0, 0, 1, 0, 0, 0, 0, 1, 0, 0, 0, 0, 1); animation: 1s linear -0.214286s infinite normal forwards running animate; transform-box: view-box;"><g transform="translate(-128,-128)"><path d="M156.299,159.176l-1.714-5.053c3.929-1.333,6.042-5.614,4.709-9.543c-0.645-1.903-1.994-3.442-3.796-4.331
	c-1.803-0.89-3.844-1.024-5.747-0.378l-1.714-5.053c3.254-1.103,6.741-0.874,9.822,0.646c3.08,1.52,5.385,4.149,6.488,7.402
	C166.625,149.582,163.015,156.898,156.299,159.176z" fill="#B3B4B4" data-fill="c2" style="fill: rgb(179, 180, 180);"></path></g></g><g data-idx="3" data-dup="" dx="128" dy="-128" style="opacity: 1; transform-origin: 284.53px 18.65px; transform: matrix3d(1, 0, 0, 0, 0, 1, 0, 0, 0, 0, 1, 0, 0, 0, 0, 1); animation: 1s linear -0.214286s infinite normal forwards running animate; transform-box: view-box;"><g transform="translate(128,-128)"><path d="M156.299,159.176l-1.714-5.053c3.929-1.333,6.042-5.614,4.709-9.543c-0.645-1.903-1.994-3.442-3.796-4.331
	c-1.803-0.89-3.844-1.024-5.747-0.378l-1.714-5.053c3.254-1.103,6.741-0.874,9.822,0.646c3.08,1.52,5.385,4.149,6.488,7.402
	C166.625,149.582,163.015,156.898,156.299,159.176z" fill="#B3B4B4" data-fill="c2" style="fill: rgb(179, 180, 180);"></path></g></g><g data-idx="4" data-dup="" dx="-128" dy="-128" style="opacity: 1; transform-origin: -25.51px 21.49px; transform: matrix3d(1, 0, 0, 0, 0, 1, 0, 0, 0, 0, 1, 0, 0, 0, 0, 1); animation: 1s linear -0.285714s infinite normal forwards running animate; transform-box: view-box;"><g transform="translate(-128,-128)"><ellipse ry="4.4" rx="4.4" cy="149.5" cx="102.5" fill="#B3B4B4" transform="matrix(0.7249 -0.6888 0.6888 0.7249 -74.7837 111.7244)" data-fill="c2" style="fill: rgb(179, 180, 180);"></ellipse></g></g><g data-idx="4" data-dup="" dx="128" dy="-128" style="opacity: 1; transform-origin: 230.49px 21.49px; transform: matrix3d(1, 0, 0, 0, 0, 1, 0, 0, 0, 0, 1, 0, 0, 0, 0, 1); animation: 1s linear -0.285714s infinite normal forwards running animate; transform-box: view-box;"><g transform="translate(128,-128)"><ellipse ry="4.4" rx="4.4" cy="149.5" cx="102.5" fill="#B3B4B4" transform="matrix(0.7249 -0.6888 0.6888 0.7249 -74.7837 111.7244)" data-fill="c2" style="fill: rgb(179, 180, 180);"></ellipse></g></g><g data-idx="5" data-dup="" dx="-128" dy="-128" style="opacity: 1; transform-origin: 114.17px 116.69px; transform: matrix3d(1, 0, 0, 0, 0, 1, 0, 0, 0, 0, 1, 0, 0, 0, 0, 1); animation: 1s linear -0.357143s infinite normal forwards running animate; transform-box: view-box;"><g transform="translate(-128,-128)"><polygon points="231.486,249.178 247.065,235.877 252.857,238.786 235.18,253.505" fill="#B3B4B4" data-fill="c2" style="fill: rgb(179, 180, 180);"></polygon></g></g><g data-idx="5" data-dup="" dx="128" dy="-128" style="opacity: 1; transform-origin: 370.17px 116.69px; transform: matrix3d(1, 0, 0, 0, 0, 1, 0, 0, 0, 0, 1, 0, 0, 0, 0, 1); animation: 1s linear -0.357143s infinite normal forwards running animate; transform-box: view-box;"><g transform="translate(128,-128)"><polygon points="231.486,249.178 247.065,235.877 252.857,238.786 235.18,253.505" fill="#B3B4B4" data-fill="c2" style="fill: rgb(179, 180, 180);"></polygon></g></g><g data-idx="6" data-dup="" dx="-128" dy="-128" style="opacity: 1; transform-origin: -20.2px -96.93px; transform: matrix3d(1, 0, 0, 0, 0, 1, 0, 0, 0, 0, 1, 0, 0, 0, 0, 1); animation: 1s linear -0.428571s infinite normal forwards running animate; transform-box: view-box;"><g transform="translate(-128,-128)"><polygon points="115.367,21.954 103.961,43.014 100.239,36.891 110.431,19.123" fill="#B3B4B4" data-fill="c2" style="fill: rgb(179, 180, 180);"></polygon></g></g><g data-idx="6" data-dup="" dx="128" dy="-128" style="opacity: 1; transform-origin: 235.8px -96.93px; transform: matrix3d(1, 0, 0, 0, 0, 1, 0, 0, 0, 0, 1, 0, 0, 0, 0, 1); animation: 1s linear -0.428571s infinite normal forwards running animate; transform-box: view-box;"><g transform="translate(128,-128)"><polygon points="115.367,21.954 103.961,43.014 100.239,36.891 110.431,19.123" fill="#B3B4B4" data-fill="c2" style="fill: rgb(179, 180, 180);"></polygon></g></g><g data-idx="7" data-dup="" dx="-128" dy="-128" style="opacity: 1; transform-origin: 94.1px -7.15px; transform: matrix3d(1, 0, 0, 0, 0, 1, 0, 0, 0, 0, 1, 0, 0, 0, 0, 1); animation: 1s linear -0.5s infinite normal forwards running animate; transform-box: view-box;"><g transform="translate(-128,-128)"><path d="M222.104,130.57c-0.044,0-0.088,0-0.132-0.001c-2.596-0.034-5.024-1.077-6.835-2.937
	c-3.74-3.84-3.659-10.006,0.181-13.746c1.86-1.812,4.308-2.785,6.91-2.756c2.596,0.034,5.024,1.078,6.835,2.938
	c3.74,3.839,3.659,10.006-0.181,13.745C227.054,129.594,224.651,130.57,222.104,130.57z M222.099,115.576
	c-1.382,0-2.686,0.53-3.678,1.496c-2.083,2.029-2.127,5.374-0.098,7.458c0.983,1.009,2.3,1.575,3.708,1.594
	c1.42,0.013,2.74-0.512,3.749-1.495c2.083-2.029,2.127-5.374,0.098-7.457l0,0c-0.983-1.009-2.3-1.575-3.708-1.594
	C222.146,115.576,222.122,115.576,222.099,115.576z" fill="#B3B4B4" data-fill="c2" style="fill: rgb(179, 180, 180);"></path></g></g><g data-idx="7" data-dup="" dx="128" dy="-128" style="opacity: 1; transform-origin: 350.1px -7.15px; transform: matrix3d(1, 0, 0, 0, 0, 1, 0, 0, 0, 0, 1, 0, 0, 0, 0, 1); animation: 1s linear -0.5s infinite normal forwards running animate; transform-box: view-box;"><g transform="translate(128,-128)"><path d="M222.104,130.57c-0.044,0-0.088,0-0.132-0.001c-2.596-0.034-5.024-1.077-6.835-2.937
	c-3.74-3.84-3.659-10.006,0.181-13.746c1.86-1.812,4.308-2.785,6.91-2.756c2.596,0.034,5.024,1.078,6.835,2.938
	c3.74,3.839,3.659,10.006-0.181,13.745C227.054,129.594,224.651,130.57,222.104,130.57z M222.099,115.576
	c-1.382,0-2.686,0.53-3.678,1.496c-2.083,2.029-2.127,5.374-0.098,7.458c0.983,1.009,2.3,1.575,3.708,1.594
	c1.42,0.013,2.74-0.512,3.749-1.495c2.083-2.029,2.127-5.374,0.098-7.457l0,0c-0.983-1.009-2.3-1.575-3.708-1.594
	C222.146,115.576,222.122,115.576,222.099,115.576z" fill="#B3B4B4" data-fill="c2" style="fill: rgb(179, 180, 180);"></path></g></g><g data-idx="8" data-dup="" dx="-128" dy="-128" style="opacity: 1; transform-origin: 46.66px -119.16px; transform: matrix3d(1, 0, 0, 0, 0, 1, 0, 0, 0, 0, 1, 0, 0, 0, 0, 1); animation: 1s linear -0.571429s infinite normal forwards running animate; transform-box: view-box;"><g transform="translate(-128,-128)"><path d="M184.509,10.022l-4.015,1.058c-0.822-3.122-4.032-4.993-7.154-4.17c-1.512,0.398-2.779,1.362-3.567,2.713
	c-0.788,1.352-1.003,2.929-0.603,4.44l-4.015,1.058c-0.681-2.585-0.315-5.28,1.031-7.589c1.346-2.309,3.511-3.956,6.096-4.637
	C177.619,1.489,183.103,4.687,184.509,10.022z" fill="#B3B4B4" data-fill="c2" style="fill: rgb(179, 180, 180);"></path></g></g><g data-idx="8" data-dup="" dx="128" dy="-128" style="opacity: 1; transform-origin: 302.66px -119.16px; transform: matrix3d(1, 0, 0, 0, 0, 1, 0, 0, 0, 0, 1, 0, 0, 0, 0, 1); animation: 1s linear -0.571429s infinite normal forwards running animate; transform-box: view-box;"><g transform="translate(128,-128)"><path d="M184.509,10.022l-4.015,1.058c-0.822-3.122-4.032-4.993-7.154-4.17c-1.512,0.398-2.779,1.362-3.567,2.713
	c-0.788,1.352-1.003,2.929-0.603,4.44l-4.015,1.058c-0.681-2.585-0.315-5.28,1.031-7.589c1.346-2.309,3.511-3.956,6.096-4.637
	C177.619,1.489,183.103,4.687,184.509,10.022z" fill="#B3B4B4" data-fill="c2" style="fill: rgb(179, 180, 180);"></path></g></g><g data-idx="9" data-dup="" dx="-128" dy="-128" style="opacity: 1; transform-origin: -6.92px 94.4px; transform: matrix3d(1, 0, 0, 0, 0, 1, 0, 0, 0, 0, 1, 0, 0, 0, 0, 1); animation: 1s linear -0.642857s infinite normal forwards running animate; transform-box: view-box;"><g transform="translate(-128,-128)"><g transform="matrix(0.9912 0.1325 -0.1325 0.9912 30.542 -14.083) translate(121.067,222.398) scale(0.6786666666666666)"><g data-icon="" transform="scale(1.000)">  <use y="-50" x="-50" xlink:href="#id-0.061250930477238175"></use>
</g></g></g></g><g data-idx="9" data-dup="" dx="128" dy="-128" style="opacity: 1; transform-origin: 249.08px 94.4px; transform: matrix3d(1, 0, 0, 0, 0, 1, 0, 0, 0, 0, 1, 0, 0, 0, 0, 1); animation: 1s linear -0.642857s infinite normal forwards running animate; transform-box: view-box;"><g transform="translate(128,-128)"><g transform="matrix(0.9912 0.1325 -0.1325 0.9912 30.542 -14.083) translate(121.067,222.398) scale(0.6786666666666666)"><g data-icon="" transform="scale(1.000)">  <use y="-50" x="-50" xlink:href="#id-0.061250930477238175"></use>
</g></g></g></g><g data-idx="10" data-dup="" dx="-128" dy="-128" style="opacity: 1; transform-origin: 33.26px -52.83px; transform: matrix3d(1, 0, 0, 0, 0, 1, 0, 0, 0, 0, 1, 0, 0, 0, 0, 1); animation: 1s linear -0.714286s infinite normal forwards running animate; transform-box: view-box;"><g transform="translate(-128,-128)"><g transform="matrix(-0.0456 0.999 -0.999 -0.0456 243.7065 -82.5047) translate(161.268,75.17099999999999) scale(0.47706666666666664)"><g data-icon="" transform="scale(1.000)">  <use y="-50" x="-50" xlink:href="#id-0.061250930477238175"></use>
</g></g></g></g><g data-idx="10" data-dup="" dx="128" dy="-128" style="opacity: 1; transform-origin: 289.26px -52.83px; transform: matrix3d(1, 0, 0, 0, 0, 1, 0, 0, 0, 0, 1, 0, 0, 0, 0, 1); animation: 1s linear -0.714286s infinite normal forwards running animate; transform-box: view-box;"><g transform="translate(128,-128)"><g transform="matrix(-0.0456 0.999 -0.999 -0.0456 243.7065 -82.5047) translate(161.268,75.17099999999999) scale(0.47706666666666664)"><g data-icon="" transform="scale(1.000)">  <use y="-50" x="-50" xlink:href="#id-0.061250930477238175"></use>
</g></g></g></g><g data-idx="11" data-dup="" dx="-128" dy="-128" style="opacity: 1; transform-origin: 87.31px 65.08px; transform: matrix3d(1, 0, 0, 0, 0, 1, 0, 0, 0, 0, 1, 0, 0, 0, 0, 1); animation: 1s linear -0.785714s infinite normal forwards running animate; transform-box: view-box;"><g transform="translate(-128,-128)"><g transform="matrix(0.5905 -0.8071 0.8071 0.5905 -67.6584 252.8308) translate(215.293,193.0815) scale(0.5214666666666667)"><g data-icon="" transform="scale(1.000)">  <use y="-50" x="-50" xlink:href="#id-0.061250930477238175"></use>
</g></g></g></g><g data-idx="11" data-dup="" dx="128" dy="-128" style="opacity: 1; transform-origin: 343.31px 65.08px; transform: matrix3d(1, 0, 0, 0, 0, 1, 0, 0, 0, 0, 1, 0, 0, 0, 0, 1); animation: 1s linear -0.785714s infinite normal forwards running animate; transform-box: view-box;"><g transform="translate(128,-128)"><g transform="matrix(0.5905 -0.8071 0.8071 0.5905 -67.6584 252.8308) translate(215.293,193.0815) scale(0.5214666666666667)"><g data-icon="" transform="scale(1.000)">  <use y="-50" x="-50" xlink:href="#id-0.061250930477238175"></use>
</g></g></g></g><g data-idx="12" data-dup="" dx="-128" dy="-128" style="opacity: 1; transform-origin: -78.81px -89.7px; transform: matrix3d(1, 0, 0, 0, 0, 1, 0, 0, 0, 0, 1, 0, 0, 0, 0, 1); animation: 1s linear -0.857143s infinite normal forwards running animate; transform-box: view-box;"><g transform="translate(-128,-128)"><g transform="matrix(-0.4749 -0.8801 0.8801 -0.4749 38.8277 99.7848) translate(49.185,38.308499999999995) scale(0.5980444444444444)"><g data-icon="" transform="scale(1.000)">  <use y="-50" x="-50" xlink:href="#id-0.061250930477238175"></use>
</g></g></g></g><g data-idx="12" data-dup="" dx="128" dy="-128" style="opacity: 1; transform-origin: 177.19px -89.7px; transform: matrix3d(1, 0, 0, 0, 0, 1, 0, 0, 0, 0, 1, 0, 0, 0, 0, 1); animation: 1s linear -0.857143s infinite normal forwards running animate; transform-box: view-box;"><g transform="translate(128,-128)"><g transform="matrix(-0.4749 -0.8801 0.8801 -0.4749 38.8277 99.7848) translate(49.185,38.308499999999995) scale(0.5980444444444444)"><g data-icon="" transform="scale(1.000)">  <use y="-50" x="-50" xlink:href="#id-0.061250930477238175"></use>
</g></g></g></g><g data-idx="13" data-dup="" dx="-128" dy="-128" style="opacity: 1; transform-origin: -89.57px 14.25px; transform: matrix3d(1, 0, 0, 0, 0, 1, 0, 0, 0, 0, 1, 0, 0, 0, 0, 1); animation: 1s linear -0.928571s infinite normal forwards running animate; transform-box: view-box;"><g transform="translate(-128,-128)"><g transform="matrix(0.7381 -0.6747 0.6747 0.7381 -85.9069 63.1885) translate(38.434,142.243) scale(0.607688888888889)"><g data-icon="" transform="scale(1.000)">  <use y="-50" x="-50" xlink:href="#id-0.061250930477238175"></use>
</g></g></g></g><g data-idx="13" data-dup="" dx="128" dy="-128" style="opacity: 1; transform-origin: 166.43px 14.25px; transform: matrix3d(1, 0, 0, 0, 0, 1, 0, 0, 0, 0, 1, 0, 0, 0, 0, 1); animation: 1s linear -0.928571s infinite normal forwards running animate; transform-box: view-box;"><g transform="translate(128,-128)"><g transform="matrix(0.7381 -0.6747 0.6747 0.7381 -85.9069 63.1885) translate(38.434,142.243) scale(0.607688888888889)"><g data-icon="" transform="scale(1.000)">  <use y="-50" x="-50" xlink:href="#id-0.061250930477238175"></use>
</g></g></g></g><g data-idx="0" data-dup="" dx="-128" dy="128" style="opacity: 1; transform-origin: -43.7px 222.76px; transform: matrix3d(1, 0, 0, 0, 0, 1, 0, 0, 0, 0, 1, 0, 0, 0, 0, 1); animation: 1s linear 0s infinite normal forwards running animate; transform-box: view-box;"><g transform="translate(-128,128)"><polygon points="95.261,98.953 73.345,96.2 74.22,90.577 94.461,93.724" fill="#B3B4B4" data-fill="c2" style="fill: rgb(179, 180, 180);"></polygon></g></g><g data-idx="0" data-dup="" dx="128" dy="128" style="opacity: 1; transform-origin: 212.3px 222.76px; transform: matrix3d(1, 0, 0, 0, 0, 1, 0, 0, 0, 0, 1, 0, 0, 0, 0, 1); animation: 1s linear 0s infinite normal forwards running animate; transform-box: view-box;"><g transform="translate(128,128)"><polygon points="95.261,98.953 73.345,96.2 74.22,90.577 94.461,93.724" fill="#B3B4B4" data-fill="c2" style="fill: rgb(179, 180, 180);"></polygon></g></g><g data-idx="1" data-dup="" dx="-128" dy="128" style="opacity: 1; transform-origin: -89.9px 341.47px; transform: matrix3d(1, 0, 0, 0, 0, 1, 0, 0, 0, 0, 1, 0, 0, 0, 0, 1); animation: 1s linear -0.0714286s infinite normal forwards running animate; transform-box: view-box;"><g transform="translate(-128,128)"><path d="M38.105,224.49c-0.05,0-0.099,0-0.149-0.001c-2.943-0.039-5.694-1.221-7.748-3.33
	c-4.239-4.352-4.147-11.342,0.205-15.581c2.108-2.054,4.884-3.157,7.833-3.124c2.943,0.039,5.694,1.222,7.748,3.33
	c4.239,4.352,4.147,11.342-0.205,15.58C43.716,223.383,40.992,224.49,38.105,224.49z M38.098,207.494
	c-1.567,0-3.044,0.6-4.169,1.695c-2.361,2.3-2.411,6.092-0.111,8.453c1.114,1.144,2.607,1.785,4.204,1.806
	c1.609,0.014,3.106-0.581,4.25-1.695c2.361-2.3,2.411-6.092,0.112-8.453l0,0c-1.114-1.144-2.607-1.785-4.204-1.806
	C38.152,207.494,38.125,207.494,38.098,207.494z" fill="#B3B4B4" data-fill="c2" style="fill: rgb(179, 180, 180);"></path></g></g><g data-idx="1" data-dup="" dx="128" dy="128" style="opacity: 1; transform-origin: 166.1px 341.47px; transform: matrix3d(1, 0, 0, 0, 0, 1, 0, 0, 0, 0, 1, 0, 0, 0, 0, 1); animation: 1s linear -0.0714286s infinite normal forwards running animate; transform-box: view-box;"><g transform="translate(128,128)"><path d="M38.105,224.49c-0.05,0-0.099,0-0.149-0.001c-2.943-0.039-5.694-1.221-7.748-3.33
	c-4.239-4.352-4.147-11.342,0.205-15.581c2.108-2.054,4.884-3.157,7.833-3.124c2.943,0.039,5.694,1.222,7.748,3.33
	c4.239,4.352,4.147,11.342-0.205,15.58C43.716,223.383,40.992,224.49,38.105,224.49z M38.098,207.494
	c-1.567,0-3.044,0.6-4.169,1.695c-2.361,2.3-2.411,6.092-0.111,8.453c1.114,1.144,2.607,1.785,4.204,1.806
	c1.609,0.014,3.106-0.581,4.25-1.695c2.361-2.3,2.411-6.092,0.112-8.453l0,0c-1.114-1.144-2.607-1.785-4.204-1.806
	C38.152,207.494,38.125,207.494,38.098,207.494z" fill="#B3B4B4" data-fill="c2" style="fill: rgb(179, 180, 180);"></path></g></g><g data-idx="2" data-dup="" dx="-128" dy="128" style="opacity: 1; transform-origin: 106.49px 175.5px; transform: matrix3d(1, 0, 0, 0, 0, 1, 0, 0, 0, 0, 1, 0, 0, 0, 0, 1); animation: 1s linear -0.142857s infinite normal forwards running animate; transform-box: view-box;"><g transform="translate(-128,128)"><ellipse ry="4.4" rx="4.4" cy="47.5" cx="234.5" fill="#B3B4B4" transform="matrix(0.7249 -0.6888 0.6888 0.7249 31.7828 174.5914)" data-fill="c2" style="fill: rgb(179, 180, 180);"></ellipse></g></g><g data-idx="2" data-dup="" dx="128" dy="128" style="opacity: 1; transform-origin: 362.49px 175.5px; transform: matrix3d(1, 0, 0, 0, 0, 1, 0, 0, 0, 0, 1, 0, 0, 0, 0, 1); animation: 1s linear -0.142857s infinite normal forwards running animate; transform-box: view-box;"><g transform="translate(128,128)"><ellipse ry="4.4" rx="4.4" cy="47.5" cx="234.5" fill="#B3B4B4" transform="matrix(0.7249 -0.6888 0.6888 0.7249 31.7828 174.5914)" data-fill="c2" style="fill: rgb(179, 180, 180);"></ellipse></g></g><g data-idx="3" data-dup="" dx="-128" dy="128" style="opacity: 1; transform-origin: 28.53px 274.65px; transform: matrix3d(1, 0, 0, 0, 0, 1, 0, 0, 0, 0, 1, 0, 0, 0, 0, 1); animation: 1s linear -0.214286s infinite normal forwards running animate; transform-box: view-box;"><g transform="translate(-128,128)"><path d="M156.299,159.176l-1.714-5.053c3.929-1.333,6.042-5.614,4.709-9.543c-0.645-1.903-1.994-3.442-3.796-4.331
	c-1.803-0.89-3.844-1.024-5.747-0.378l-1.714-5.053c3.254-1.103,6.741-0.874,9.822,0.646c3.08,1.52,5.385,4.149,6.488,7.402
	C166.625,149.582,163.015,156.898,156.299,159.176z" fill="#B3B4B4" data-fill="c2" style="fill: rgb(179, 180, 180);"></path></g></g><g data-idx="3" data-dup="" dx="128" dy="128" style="opacity: 1; transform-origin: 284.53px 274.65px; transform: matrix3d(1, 0, 0, 0, 0, 1, 0, 0, 0, 0, 1, 0, 0, 0, 0, 1); animation: 1s linear -0.214286s infinite normal forwards running animate; transform-box: view-box;"><g transform="translate(128,128)"><path d="M156.299,159.176l-1.714-5.053c3.929-1.333,6.042-5.614,4.709-9.543c-0.645-1.903-1.994-3.442-3.796-4.331
	c-1.803-0.89-3.844-1.024-5.747-0.378l-1.714-5.053c3.254-1.103,6.741-0.874,9.822,0.646c3.08,1.52,5.385,4.149,6.488,7.402
	C166.625,149.582,163.015,156.898,156.299,159.176z" fill="#B3B4B4" data-fill="c2" style="fill: rgb(179, 180, 180);"></path></g></g><g data-idx="4" data-dup="" dx="-128" dy="128" style="opacity: 1; transform-origin: -25.51px 277.49px; transform: matrix3d(1, 0, 0, 0, 0, 1, 0, 0, 0, 0, 1, 0, 0, 0, 0, 1); animation: 1s linear -0.285714s infinite normal forwards running animate; transform-box: view-box;"><g transform="translate(-128,128)"><ellipse ry="4.4" rx="4.4" cy="149.5" cx="102.5" fill="#B3B4B4" transform="matrix(0.7249 -0.6888 0.6888 0.7249 -74.7837 111.7244)" data-fill="c2" style="fill: rgb(179, 180, 180);"></ellipse></g></g><g data-idx="4" data-dup="" dx="128" dy="128" style="opacity: 1; transform-origin: 230.49px 277.49px; transform: matrix3d(1, 0, 0, 0, 0, 1, 0, 0, 0, 0, 1, 0, 0, 0, 0, 1); animation: 1s linear -0.285714s infinite normal forwards running animate; transform-box: view-box;"><g transform="translate(128,128)"><ellipse ry="4.4" rx="4.4" cy="149.5" cx="102.5" fill="#B3B4B4" transform="matrix(0.7249 -0.6888 0.6888 0.7249 -74.7837 111.7244)" data-fill="c2" style="fill: rgb(179, 180, 180);"></ellipse></g></g><g data-idx="5" data-dup="" dx="-128" dy="128" style="opacity: 1; transform-origin: 114.17px 372.69px; transform: matrix3d(1, 0, 0, 0, 0, 1, 0, 0, 0, 0, 1, 0, 0, 0, 0, 1); animation: 1s linear -0.357143s infinite normal forwards running animate; transform-box: view-box;"><g transform="translate(-128,128)"><polygon points="231.486,249.178 247.065,235.877 252.857,238.786 235.18,253.505" fill="#B3B4B4" data-fill="c2" style="fill: rgb(179, 180, 180);"></polygon></g></g><g data-idx="5" data-dup="" dx="128" dy="128" style="opacity: 1; transform-origin: 370.17px 372.69px; transform: matrix3d(1, 0, 0, 0, 0, 1, 0, 0, 0, 0, 1, 0, 0, 0, 0, 1); animation: 1s linear -0.357143s infinite normal forwards running animate; transform-box: view-box;"><g transform="translate(128,128)"><polygon points="231.486,249.178 247.065,235.877 252.857,238.786 235.18,253.505" fill="#B3B4B4" data-fill="c2" style="fill: rgb(179, 180, 180);"></polygon></g></g><g data-idx="6" data-dup="" dx="-128" dy="128" style="opacity: 1; transform-origin: -20.2px 159.07px; transform: matrix3d(1, 0, 0, 0, 0, 1, 0, 0, 0, 0, 1, 0, 0, 0, 0, 1); animation: 1s linear -0.428571s infinite normal forwards running animate; transform-box: view-box;"><g transform="translate(-128,128)"><polygon points="115.367,21.954 103.961,43.014 100.239,36.891 110.431,19.123" fill="#B3B4B4" data-fill="c2" style="fill: rgb(179, 180, 180);"></polygon></g></g><g data-idx="6" data-dup="" dx="128" dy="128" style="opacity: 1; transform-origin: 235.8px 159.07px; transform: matrix3d(1, 0, 0, 0, 0, 1, 0, 0, 0, 0, 1, 0, 0, 0, 0, 1); animation: 1s linear -0.428571s infinite normal forwards running animate; transform-box: view-box;"><g transform="translate(128,128)"><polygon points="115.367,21.954 103.961,43.014 100.239,36.891 110.431,19.123" fill="#B3B4B4" data-fill="c2" style="fill: rgb(179, 180, 180);"></polygon></g></g><g data-idx="7" data-dup="" dx="-128" dy="128" style="opacity: 1; transform-origin: 94.1px 248.85px; transform: matrix3d(1, 0, 0, 0, 0, 1, 0, 0, 0, 0, 1, 0, 0, 0, 0, 1); animation: 1s linear -0.5s infinite normal forwards running animate; transform-box: view-box;"><g transform="translate(-128,128)"><path d="M222.104,130.57c-0.044,0-0.088,0-0.132-0.001c-2.596-0.034-5.024-1.077-6.835-2.937
	c-3.74-3.84-3.659-10.006,0.181-13.746c1.86-1.812,4.308-2.785,6.91-2.756c2.596,0.034,5.024,1.078,6.835,2.938
	c3.74,3.839,3.659,10.006-0.181,13.745C227.054,129.594,224.651,130.57,222.104,130.57z M222.099,115.576
	c-1.382,0-2.686,0.53-3.678,1.496c-2.083,2.029-2.127,5.374-0.098,7.458c0.983,1.009,2.3,1.575,3.708,1.594
	c1.42,0.013,2.74-0.512,3.749-1.495c2.083-2.029,2.127-5.374,0.098-7.457l0,0c-0.983-1.009-2.3-1.575-3.708-1.594
	C222.146,115.576,222.122,115.576,222.099,115.576z" fill="#B3B4B4" data-fill="c2" style="fill: rgb(179, 180, 180);"></path></g></g><g data-idx="7" data-dup="" dx="128" dy="128" style="opacity: 1; transform-origin: 350.1px 248.85px; transform: matrix3d(1, 0, 0, 0, 0, 1, 0, 0, 0, 0, 1, 0, 0, 0, 0, 1); animation: 1s linear -0.5s infinite normal forwards running animate; transform-box: view-box;"><g transform="translate(128,128)"><path d="M222.104,130.57c-0.044,0-0.088,0-0.132-0.001c-2.596-0.034-5.024-1.077-6.835-2.937
	c-3.74-3.84-3.659-10.006,0.181-13.746c1.86-1.812,4.308-2.785,6.91-2.756c2.596,0.034,5.024,1.078,6.835,2.938
	c3.74,3.839,3.659,10.006-0.181,13.745C227.054,129.594,224.651,130.57,222.104,130.57z M222.099,115.576
	c-1.382,0-2.686,0.53-3.678,1.496c-2.083,2.029-2.127,5.374-0.098,7.458c0.983,1.009,2.3,1.575,3.708,1.594
	c1.42,0.013,2.74-0.512,3.749-1.495c2.083-2.029,2.127-5.374,0.098-7.457l0,0c-0.983-1.009-2.3-1.575-3.708-1.594
	C222.146,115.576,222.122,115.576,222.099,115.576z" fill="#B3B4B4" data-fill="c2" style="fill: rgb(179, 180, 180);"></path></g></g><g data-idx="8" data-dup="" dx="-128" dy="128" style="opacity: 1; transform-origin: 46.66px 136.84px; transform: matrix3d(1, 0, 0, 0, 0, 1, 0, 0, 0, 0, 1, 0, 0, 0, 0, 1); animation: 1s linear -0.571429s infinite normal forwards running animate; transform-box: view-box;"><g transform="translate(-128,128)"><path d="M184.509,10.022l-4.015,1.058c-0.822-3.122-4.032-4.993-7.154-4.17c-1.512,0.398-2.779,1.362-3.567,2.713
	c-0.788,1.352-1.003,2.929-0.603,4.44l-4.015,1.058c-0.681-2.585-0.315-5.28,1.031-7.589c1.346-2.309,3.511-3.956,6.096-4.637
	C177.619,1.489,183.103,4.687,184.509,10.022z" fill="#B3B4B4" data-fill="c2" style="fill: rgb(179, 180, 180);"></path></g></g><g data-idx="8" data-dup="" dx="128" dy="128" style="opacity: 1; transform-origin: 302.66px 136.84px; transform: matrix3d(1, 0, 0, 0, 0, 1, 0, 0, 0, 0, 1, 0, 0, 0, 0, 1); animation: 1s linear -0.571429s infinite normal forwards running animate; transform-box: view-box;"><g transform="translate(128,128)"><path d="M184.509,10.022l-4.015,1.058c-0.822-3.122-4.032-4.993-7.154-4.17c-1.512,0.398-2.779,1.362-3.567,2.713
	c-0.788,1.352-1.003,2.929-0.603,4.44l-4.015,1.058c-0.681-2.585-0.315-5.28,1.031-7.589c1.346-2.309,3.511-3.956,6.096-4.637
	C177.619,1.489,183.103,4.687,184.509,10.022z" fill="#B3B4B4" data-fill="c2" style="fill: rgb(179, 180, 180);"></path></g></g><g data-idx="9" data-dup="" dx="-128" dy="128" style="opacity: 1; transform-origin: -6.92px 350.4px; transform: matrix3d(1, 0, 0, 0, 0, 1, 0, 0, 0, 0, 1, 0, 0, 0, 0, 1); animation: 1s linear -0.642857s infinite normal forwards running animate; transform-box: view-box;"><g transform="translate(-128,128)"><g transform="matrix(0.9912 0.1325 -0.1325 0.9912 30.542 -14.083) translate(121.067,222.398) scale(0.6786666666666666)"><g data-icon="" transform="scale(1.000)">  <use y="-50" x="-50" xlink:href="#id-0.061250930477238175"></use>
</g></g></g></g><g data-idx="9" data-dup="" dx="128" dy="128" style="opacity: 1; transform-origin: 249.08px 350.4px; transform: matrix3d(1, 0, 0, 0, 0, 1, 0, 0, 0, 0, 1, 0, 0, 0, 0, 1); animation: 1s linear -0.642857s infinite normal forwards running animate; transform-box: view-box;"><g transform="translate(128,128)"><g transform="matrix(0.9912 0.1325 -0.1325 0.9912 30.542 -14.083) translate(121.067,222.398) scale(0.6786666666666666)"><g data-icon="" transform="scale(1.000)">  <use y="-50" x="-50" xlink:href="#id-0.061250930477238175"></use>
</g></g></g></g><g data-idx="10" data-dup="" dx="-128" dy="128" style="opacity: 1; transform-origin: 33.26px 203.17px; transform: matrix3d(1, 0, 0, 0, 0, 1, 0, 0, 0, 0, 1, 0, 0, 0, 0, 1); animation: 1s linear -0.714286s infinite normal forwards running animate; transform-box: view-box;"><g transform="translate(-128,128)"><g transform="matrix(-0.0456 0.999 -0.999 -0.0456 243.7065 -82.5047) translate(161.268,75.17099999999999) scale(0.47706666666666664)"><g data-icon="" transform="scale(1.000)">  <use y="-50" x="-50" xlink:href="#id-0.061250930477238175"></use>
</g></g></g></g><g data-idx="10" data-dup="" dx="128" dy="128" style="opacity: 1; transform-origin: 289.26px 203.17px; transform: matrix3d(1, 0, 0, 0, 0, 1, 0, 0, 0, 0, 1, 0, 0, 0, 0, 1); animation: 1s linear -0.714286s infinite normal forwards running animate; transform-box: view-box;"><g transform="translate(128,128)"><g transform="matrix(-0.0456 0.999 -0.999 -0.0456 243.7065 -82.5047) translate(161.268,75.17099999999999) scale(0.47706666666666664)"><g data-icon="" transform="scale(1.000)">  <use y="-50" x="-50" xlink:href="#id-0.061250930477238175"></use>
</g></g></g></g><g data-idx="11" data-dup="" dx="-128" dy="128" style="opacity: 1; transform-origin: 87.31px 321.08px; transform: matrix3d(1, 0, 0, 0, 0, 1, 0, 0, 0, 0, 1, 0, 0, 0, 0, 1); animation: 1s linear -0.785714s infinite normal forwards running animate; transform-box: view-box;"><g transform="translate(-128,128)"><g transform="matrix(0.5905 -0.8071 0.8071 0.5905 -67.6584 252.8308) translate(215.293,193.0815) scale(0.5214666666666667)"><g data-icon="" transform="scale(1.000)">  <use y="-50" x="-50" xlink:href="#id-0.061250930477238175"></use>
</g></g></g></g><g data-idx="11" data-dup="" dx="128" dy="128" style="opacity: 1; transform-origin: 343.31px 321.08px; transform: matrix3d(1, 0, 0, 0, 0, 1, 0, 0, 0, 0, 1, 0, 0, 0, 0, 1); animation: 1s linear -0.785714s infinite normal forwards running animate; transform-box: view-box;"><g transform="translate(128,128)"><g transform="matrix(0.5905 -0.8071 0.8071 0.5905 -67.6584 252.8308) translate(215.293,193.0815) scale(0.5214666666666667)"><g data-icon="" transform="scale(1.000)">  <use y="-50" x="-50" xlink:href="#id-0.061250930477238175"></use>
</g></g></g></g><g data-idx="12" data-dup="" dx="-128" dy="128" style="opacity: 1; transform-origin: -78.81px 166.3px; transform: matrix3d(1, 0, 0, 0, 0, 1, 0, 0, 0, 0, 1, 0, 0, 0, 0, 1); animation: 1s linear -0.857143s infinite normal forwards running animate; transform-box: view-box;"><g transform="translate(-128,128)"><g transform="matrix(-0.4749 -0.8801 0.8801 -0.4749 38.8277 99.7848) translate(49.185,38.308499999999995) scale(0.5980444444444444)"><g data-icon="" transform="scale(1.000)">  <use y="-50" x="-50" xlink:href="#id-0.061250930477238175"></use>
</g></g></g></g><g data-idx="12" data-dup="" dx="128" dy="128" style="opacity: 1; transform-origin: 177.19px 166.3px; transform: matrix3d(1, 0, 0, 0, 0, 1, 0, 0, 0, 0, 1, 0, 0, 0, 0, 1); animation: 1s linear -0.857143s infinite normal forwards running animate; transform-box: view-box;"><g transform="translate(128,128)"><g transform="matrix(-0.4749 -0.8801 0.8801 -0.4749 38.8277 99.7848) translate(49.185,38.308499999999995) scale(0.5980444444444444)"><g data-icon="" transform="scale(1.000)">  <use y="-50" x="-50" xlink:href="#id-0.061250930477238175"></use>
</g></g></g></g><g data-idx="13" data-dup="" dx="-128" dy="128" style="opacity: 1; transform-origin: -89.57px 270.25px; transform: matrix3d(1, 0, 0, 0, 0, 1, 0, 0, 0, 0, 1, 0, 0, 0, 0, 1); animation: 1s linear -0.928571s infinite normal forwards running animate; transform-box: view-box;"><g transform="translate(-128,128)"><g transform="matrix(0.7381 -0.6747 0.6747 0.7381 -85.9069 63.1885) translate(38.434,142.243) scale(0.607688888888889)"><g data-icon="" transform="scale(1.000)">  <use y="-50" x="-50" xlink:href="#id-0.061250930477238175"></use>
</g></g></g></g><g data-idx="13" data-dup="" dx="128" dy="128" style="opacity: 1; transform-origin: 166.43px 270.25px; transform: matrix3d(1, 0, 0, 0, 0, 1, 0, 0, 0, 0, 1, 0, 0, 0, 0, 1); animation: 1s linear -0.928571s infinite normal forwards running animate; transform-box: view-box;"><g transform="translate(128,128)"><g transform="matrix(0.7381 -0.6747 0.6747 0.7381 -85.9069 63.1885) translate(38.434,142.243) scale(0.607688888888889)"><g data-icon="" transform="scale(1.000)">  <use y="-50" x="-50" xlink:href="#id-0.061250930477238175"></use>
</g></g></g></g></g><style type="text/css">@keyframes animate { 0.00% {transform: translate(0.00px,0.00px) rotate(0.00deg) scale(1.00, 1.00) skew(0deg, 0.00deg) ;opacity: 1.00;}2.00% {transform: translate(0.00px,0.00px) rotate(0.00deg) scale(1.06, 1.06) ;}6.00% {transform: translate(0.00px,0.00px) rotate(0.00deg) scale(1.11, 1.11) ;}10.00% {transform: translate(0.00px,0.00px) rotate(0.00deg) scale(1.14, 1.14) ;}14.00% {transform: translate(0.00px,0.00px) rotate(0.00deg) scale(1.16, 1.16) ;}18.00% {transform: translate(0.00px,0.00px) rotate(0.00deg) scale(1.18, 1.18) ;}22.00% {transform: translate(0.00px,0.00px) rotate(0.00deg) scale(1.19, 1.19) ;}26.00% {transform: translate(0.00px,0.00px) rotate(0.00deg) scale(1.20, 1.20) ;}30.00% {transform: translate(0.00px,0.00px) rotate(0.00deg) scale(1.20, 1.20) ;}32.00% {transform: translate(0.00px,0.00px) rotate(0.00deg) scale(1.20, 1.20) ;}36.00% {transform: translate(0.00px,0.00px) rotate(0.00deg) scale(1.20, 1.20) ;}40.00% {transform: translate(0.00px,0.00px) rotate(0.00deg) scale(1.19, 1.19) ;}44.00% {transform: translate(0.00px,0.00px) rotate(0.00deg) scale(1.18, 1.18) ;}48.00% {transform: translate(0.00px,0.00px) rotate(0.00deg) scale(1.16, 1.16) ;}52.00% {transform: translate(0.00px,0.00px) rotate(0.00deg) scale(1.14, 1.14) ;}56.00% {transform: translate(0.00px,0.00px) rotate(0.00deg) scale(1.11, 1.11) ;}60.00% {transform: translate(0.00px,0.00px) rotate(0.00deg) scale(1.07, 1.07) ;}62.00% {animation-timing-function: cubic-bezier(0.75,0.45,0.39,0.14);transform: translate(0.00px,0.00px) rotate(0.00deg) scale(1.03, 1.03) ;}66.00% {animation-timing-function: cubic-bezier(0.65,0.73,0.31,0.40);transform: translate(0.00px,0.00px) rotate(0.00deg) scale(1.06, 1.06) ;}72.00% {transform: translate(0.00px,0.00px) rotate(0.00deg) scale(1.10, 1.10) ;}76.00% {transform: translate(0.00px,0.00px) rotate(0.00deg) scale(1.11, 1.11) ;}80.00% {transform: translate(0.00px,0.00px) rotate(0.00deg) scale(1.11, 1.11) ;}82.00% {animation-timing-function: cubic-bezier(0.74,0.47,0.38,0.16);transform: translate(0.00px,0.00px) rotate(0.00deg) scale(1.11, 1.11) ;}88.00% {transform: translate(0.00px,0.00px) rotate(0.00deg) scale(1.10, 1.10) ;}92.00% {transform: translate(0.00px,0.00px) rotate(0.00deg) scale(1.09, 1.09) ;}96.00% {transform: translate(0.00px,0.00px) rotate(0.00deg) scale(1.07, 1.07) ;}100.00% {transform: translate(0.00px,0.00px) rotate(0.00deg) scale(1.00, 1.00) ;} }</style><!-- [ldio] generated by https://loading.io --></svg>